<?xml version="1.0" encoding="UTF-8"?>
<svg id="Calque_2" data-name="Calque 2" xmlns="http://www.w3.org/2000/svg" viewBox="0 0 95.03 81.46">
  <g id="Calque_1-2" data-name="Calque 1">
    <g>
      <path d="M95.02,78.51l-5.1-39.8c-.1-.9-.8-1.8-1.7-2.1l-8.6-3.1c-.8,1.5-1.6,3.1-2.4,4.6l7.7,2.8,4.4,34.3-18.3-5.9-1.3-20.2c-.9.4-1.9.6-3,.6-.7,0-1.5-.1-2.1-.3l1.3,20-16,5.8v-34.5l6.4-2.6-2.4-4.6-6.4,2.7-17.6-7.3c-.6-.2-1.3-.3-1.9-.1l-21.2,7.8c-.9.3-1.5,1.1-1.7,2.1L.02,78.51c-.1.9.2,1.7.9,2.3.7.6,1.6.7,2.4.5l22.9-7.4,20.4,7.4c.6.2,1.2.2,1.7,0l20.4-7.4,22.9,7.4c.3.1.5.1.8.1.6,0,1.2-.2,1.6-.6.7-.6,1.1-1.4,1-2.3ZM23.92,69.31l-18.3,5.9,4.4-34.3,16.1-5.8-2.2,34.2ZM44.92,75.21l-16-5.8,2.2-34.4,13.8,5.7v34.5Z"/>
      <path d="M64.92,43.41c.8,1.6,3.1,1.6,3.9,0,0,0,9.1-17.8,11.2-22s2.2-8.9,0-13.3c-3.6-7.3-12.5-10.2-19.8-6.5s-10.1,12.8-6.5,19.8c3.6,7,11.2,22,11.2,22ZM66.92,8.01c3.9,0,7,3.1,7,7s-3.1,7-7,7-7-3.1-7-7,3.1-7,7-7Z"/>
    </g>
  </g>
</svg>