<?xml version="1.0" encoding="UTF-8"?>
<svg id="Calque_2" data-name="Calque 2" xmlns="http://www.w3.org/2000/svg" viewBox="0 0 94.12 83.77">
  <g id="Calque_1-2" data-name="Calque 1">
    <path d="M46.35,0c-.8,0-1.46.66-1.46,1.46v51.41h-13v-30.78c0-.81-.66-1.46-1.47-1.46H5.93h0c-.81,0-1.48.66-1.48,1.46v58.73H1.48c-.81,0-1.47.65-1.48,1.46,0,.39.15.77.43,1.04s.66.43,1.05.43h91.18c.39,0,.77-.16,1.04-.43.27-.28.43-.65.43-1.04,0-.81-.66-1.46-1.46-1.46h-2.99V29.44c0-.81-.66-1.46-1.46-1.46h-14.18V1.46h0c0-.8-.66-1.46-1.46-1.46h-26.21ZM47.83,2.94h23.25v25.03h-7.37c-.81,0-1.47.65-1.48,1.46v51.39h-5.7v-26.49h0c0-.8-.66-1.46-1.46-1.46h-7.24V2.94ZM55.31,7.55h0c-.39,0-.77.15-1.04.42-.27.28-.43.65-.43,1.04v3.57c0,.39.16.77.43,1.04.28.28.65.43,1.04.43.81,0,1.46-.66,1.46-1.47v-3.57c0-.81-.66-1.46-1.46-1.46h0ZM63.6,7.55h0c-.39,0-.77.15-1.04.42-.28.28-.43.65-.43,1.04v3.57c0,.39.16.77.43,1.04.28.28.65.43,1.04.43.81,0,1.46-.66,1.47-1.47v-3.57c0-.81-.66-1.46-1.47-1.46h0ZM55.31,17.85h0c-.39,0-.77.15-1.05.43s-.43.65-.43,1.05v3.57h0c0,.39.16.76.43,1.04.28.27.65.43,1.04.43.81,0,1.46-.66,1.46-1.46v-3.57h0c0-.39-.15-.76-.43-1.04-.27-.28-.65-.43-1.04-.43h0ZM63.6,17.85h0c-.39,0-.77.15-1.05.43s-.43.65-.43,1.05v3.57h0c0,.39.16.76.43,1.04.28.27.65.43,1.04.43.81,0,1.46-.66,1.47-1.46v-3.57h0c0-.39-.15-.76-.43-1.04-.27-.28-.65-.43-1.04-.43h0ZM7.39,23.58h21.55v29.3h-8.85c-.81-.01-1.47.64-1.48,1.46v26.49H7.39V23.58ZM55.31,28.17h0c-.39,0-.77.14-1.05.42s-.43.66-.43,1.05v3.56c0,.39.15.77.43,1.04.28.28.66.43,1.05.43.39,0,.77-.16,1.04-.44.27-.27.43-.65.43-1.04v-3.56c0-.39-.15-.77-.43-1.04-.27-.27-.65-.43-1.04-.43h0ZM14.03,28.33h0c-.39,0-.77.14-1.04.42-.28.28-.43.66-.43,1.05v3.57c0,.39.16.76.44,1.04.28.27.65.43,1.04.43.81,0,1.46-.66,1.47-1.46v-3.57c0-.39-.15-.77-.43-1.04-.28-.28-.65-.43-1.04-.43h0ZM22.32,28.33h0c-.39,0-.77.14-1.05.42-.28.28-.43.66-.43,1.05v3.57c0,.39.16.76.43,1.04.28.27.65.43,1.04.43.8,0,1.46-.66,1.46-1.46v-3.57c0-.39-.15-.77-.43-1.04-.28-.27-.65-.43-1.04-.43h0ZM65.18,30.92h21.55v49.91h-21.55V30.92ZM70.05,37.56h0c-.39,0-.77.15-1.04.43-.28.28-.43.65-.43,1.04,0,.81.66,1.46,1.47,1.46h11.8c.39,0,.77-.15,1.04-.43.27-.28.43-.65.43-1.04,0-.39-.16-.77-.43-1.05-.28-.28-.65-.43-1.04-.43h-11.8ZM55.31,38.48h0c-.39-.01-.77.14-1.04.42-.27.27-.43.65-.43,1.04v3.57h0c0,.39.15.77.43,1.04.28.28.66.43,1.05.43.39,0,.77-.16,1.04-.43.27-.28.43-.65.43-1.04v-3.57h0c0-.8-.66-1.46-1.46-1.46h0ZM14.03,38.64h0c-.39-.01-.77.14-1.04.42-.28.28-.43.65-.43,1.05v3.56h0c0,.39.16.77.43,1.04.28.28.65.43,1.04.43.39,0,.77-.16,1.04-.43.27-.28.43-.65.43-1.04v-3.56h0c0-.39-.15-.76-.43-1.04-.28-.28-.65-.43-1.04-.43h0ZM22.32,38.64h0c-.39-.01-.77.14-1.05.42-.28.28-.43.65-.43,1.05v3.56h0c0,.39.15.77.43,1.04.28.28.65.43,1.05.43.81,0,1.47-.66,1.46-1.48v-3.56h0c0-.39-.15-.76-.43-1.04-.28-.28-.65-.43-1.04-.43h0ZM70.05,48.79h0c-.81,0-1.46.65-1.47,1.46,0,.39.15.77.43,1.04.27.28.65.43,1.04.43h11.8c.39,0,.77-.15,1.04-.43.28-.28.43-.66.43-1.05,0-.81-.66-1.47-1.48-1.46h-11.8ZM14.02,48.95h0c-.39,0-.76.14-1.04.42-.28.28-.43.65-.44,1.04v3.57c0,.39.16.77.43,1.05.28.28.65.43,1.04.43s.77-.16,1.04-.43c.27-.28.43-.65.43-1.04v-3.57c0-.81-.66-1.46-1.47-1.46h0ZM21.56,55.82h32.03v25.01h-6.45v-7.96h0c0-.81-.66-1.46-1.46-1.46h-16.19c-.39,0-.77.15-1.04.43-.28.28-.43.65-.43,1.04v7.95h-6.45v-25ZM14.02,59.27h0c-.39-.01-.77.14-1.04.42-.28.28-.43.65-.43,1.04v3.57c0,.39.16.77.44,1.04.28.27.65.43,1.04.43.81,0,1.46-.66,1.47-1.46v-3.57c0-.81-.66-1.46-1.47-1.46h0ZM28.83,59.82h0c-.39,0-.76.15-1.04.42-.27.28-.43.65-.43,1.04v4.72c0,.81.66,1.46,1.46,1.46.39,0,.77-.15,1.04-.43.28-.27.43-.65.43-1.04v-4.72c0-.39-.15-.77-.43-1.04-.28-.28-.65-.43-1.05-.43h0ZM37.58,59.82h0c-.39-.01-.77.14-1.05.42-.28.28-.43.65-.43,1.04v4.72c0,.39.16.77.43,1.04.28.27.65.43,1.04.43.81,0,1.46-.66,1.46-1.46v-4.72c0-.39-.15-.76-.43-1.04-.28-.28-.65-.43-1.04-.44h0ZM46.32,59.82h0c-.39,0-.77.15-1.04.43-.27.28-.43.65-.43,1.04v4.72c0,.81.66,1.46,1.46,1.46.39,0,.76-.15,1.04-.43.28-.27.43-.65.44-1.04v-4.72c0-.39-.16-.77-.43-1.04-.28-.28-.65-.43-1.04-.43h0ZM70.05,60.02h0c-.39,0-.77.15-1.04.42-.28.28-.43.65-.43,1.04,0,.81.66,1.46,1.47,1.46h11.8c.81,0,1.47-.65,1.48-1.46,0-.39-.16-.77-.43-1.04-.28-.28-.65-.43-1.04-.43h-11.8ZM14.03,69.57h0c-.39-.01-.77.14-1.04.42-.28.28-.43.65-.43,1.05v3.57c0,.39.16.76.44,1.04.28.28.65.43,1.04.43.81,0,1.46-.66,1.47-1.46v-3.57c0-.39-.15-.77-.43-1.04-.28-.28-.65-.43-1.04-.43h0ZM70.05,71.25h0c-.81-.01-1.46.64-1.47,1.45,0,.39.15.77.43,1.04.27.28.65.43,1.04.43h11.8c.39,0,.77-.16,1.04-.43.28-.28.43-.65.43-1.04,0-.81-.66-1.47-1.48-1.46h-11.8ZM30.95,74.37h5.16v6.47h-5.16v-6.47ZM39.05,74.37h5.16v6.47h-5.16v-6.47Z"/>
  </g>
</svg>