<?xml version="1.0" encoding="UTF-8"?>
<svg id="Calque_2" data-name="Calque 2" xmlns="http://www.w3.org/2000/svg" viewBox="0 0 90.25 90.85">
  <g id="Calque_1-2" data-name="Calque 1">
    <path d="M34.31,90.82c-.14,0-.38-.03-.54-.04-.16-.01-.55-.05-.87-.09-.32-.04-.8-.09-1.06-.13-.26-.04-.68-.1-.94-.14-.26-.04-.68-.11-.95-.16-.27-.05-.68-.13-.92-.18-.24-.05-.61-.12-.83-.17s-.64-.14-.95-.22c-.3-.07-.74-.18-.97-.24-.23-.06-.55-.15-.72-.2-.17-.05-.5-.15-.75-.23-.24-.08-.57-.18-.72-.23-.15-.05-.41-.14-.57-.2-.16-.06-.47-.18-.68-.26-.21-.09-.58-.24-.82-.34s-.71-.33-1.04-.49c-.34-.16-.73-.37-.88-.45-.15-.08-.39-.21-.53-.3-.14-.09-.38-.22-.51-.3-.14-.09-.41-.26-.61-.39-.2-.13-.49-.34-.66-.46-.16-.12-.39-.29-.5-.38s-.36-.3-.55-.47c-.2-.17-.6-.55-.91-.86-.3-.3-.66-.67-.78-.81-.12-.14-.35-.41-.51-.61-.16-.2-.41-.54-.57-.75-.16-.22-.41-.58-.55-.8-.14-.22-.36-.55-.46-.73-.11-.18-.3-.51-.42-.73s-.36-.66-.51-.97c-.16-.31-.37-.74-.46-.95-.1-.21-.26-.58-.37-.82-.11-.24-.3-.7-.43-1.03-.13-.32-.31-.8-.4-1.05-.09-.25-.25-.68-.34-.96-.09-.27-.25-.75-.34-1.05-.09-.3-.25-.8-.34-1.11s-.23-.81-.31-1.11c-.08-.3-.22-.84-.3-1.19-.09-.36-.21-.86-.27-1.13-.06-.27-.18-.79-.25-1.16-.08-.37-.18-.88-.23-1.14-.05-.27-.12-.71-.18-1-.05-.29-.11-.69-.14-.89-.03-.2-.09-.59-.12-.85-.04-.27-.09-.75-.13-1.08-.04-.33-.09-.82-.11-1.1-.02-.28-.06-.74-.07-1.03-.02-.29-.04-.67-.04-.84,0-.18-.02-.42-.02-.55,0-.12-.02-.59-.02-1.04,0-.45,0-1.28.01-1.86.02-.57.04-1.25.05-1.5.01-.25.04-.68.05-.95.02-.27.05-.7.08-.95.02-.25.07-.66.1-.89s.09-.66.13-.94c.04-.28.11-.69.15-.92.04-.23.1-.54.13-.7s.12-.57.2-.93c.08-.35.21-.93.3-1.29.09-.36.23-.89.32-1.18.08-.29.23-.78.33-1.09.1-.3.26-.8.36-1.1l.18-.55h-.66c-.39,0-.75-.01-.9-.03-.13-.02-.4-.05-.6-.08s-.54-.09-.75-.13c-.21-.04-.62-.13-.91-.2-.29-.07-.7-.17-.93-.24-.23-.07-.55-.17-.73-.23-.18-.06-.46-.16-.63-.23-.18-.07-.46-.18-.63-.25s-.5-.23-.73-.34-.54-.27-.68-.36c-.15-.09-.39-.23-.54-.32s-.35-.23-.46-.31c-.11-.08-.23-.19-.27-.23s-.09-.11-.1-.15c-.02-.04-.03-.11-.03-.16s.02-.12.04-.17c.03-.04.08-.1.12-.13.04-.03.12-.07.18-.08.06-.02.21-.05.34-.09.13-.03.34-.09.46-.12.12-.04.32-.11.44-.16.12-.05.34-.14.5-.22.16-.07.4-.2.55-.27.14-.08.43-.25.64-.37.21-.12.52-.32.7-.44.18-.12.45-.31.6-.43s.39-.3.52-.41c.13-.11.37-.32.52-.46.16-.14.44-.43.64-.63.2-.2.44-.47.54-.59.11-.12.28-.33.39-.46.11-.13.28-.36.39-.49.11-.14.27-.37.38-.51.1-.14.25-.36.33-.49.08-.12.22-.34.31-.49.09-.14.27-.45.4-.68.13-.23.38-.69.54-1.02.16-.33.46-.95.66-1.36.2-.42.43-.92.52-1.11.09-.19.3-.65.48-1.02.18-.37.37-.75.42-.86.05-.11.1-.2.09-.2,0,0-.18.03-.4.08s-.5.11-.63.13c-.13.02-.38.06-.54.09-.16.02-.43.06-.59.07-.16.02-.48.04-.73.06-.27.02-.69.02-1.09.01-.36,0-.79-.03-.96-.05-.18-.03-.46-.06-.62-.09-.17-.02-.45-.07-.63-.11-.18-.04-.49-.11-.7-.16-.21-.05-.5-.14-.67-.2-.16-.05-.41-.15-.55-.21-.14-.06-.34-.15-.43-.2-.1-.05-.25-.14-.35-.2-.1-.06-.26-.17-.36-.25-.1-.08-.24-.2-.31-.26-.07-.07-.19-.2-.27-.3-.07-.1-.16-.24-.2-.32-.04-.09-.07-.19-.07-.27,0-.07,0-.18.02-.23.02-.07.06-.13.14-.21.09-.09.15-.12.23-.15.06-.02.25-.05.41-.08.16-.02.42-.07.56-.11.14-.04.39-.11.54-.16.15-.05.37-.14.48-.19s.31-.15.44-.22c.13-.07.37-.22.54-.33.16-.11.43-.3.59-.43s.41-.33.56-.45c.14-.12.39-.34.54-.48.15-.14.38-.36.5-.5.13-.13.32-.34.42-.46.11-.12.3-.36.43-.52s.38-.48.54-.7c.16-.21.43-.57.59-.8.16-.22.56-.78.89-1.24.33-.46.74-1.04.92-1.28.18-.24.47-.63.65-.86.18-.23.43-.55.56-.71s.37-.45.54-.66.43-.5.56-.66c.13-.15.39-.43.56-.62.17-.19.49-.53.7-.75.21-.22.65-.68.98-1.01.33-.34.82-.82,1.09-1.08.27-.26.65-.61.84-.79.19-.17.47-.42.62-.55.15-.13.45-.39.66-.57s.58-.48.81-.66c.23-.18.6-.47.83-.64.23-.17.61-.45.85-.61.24-.17.64-.44.89-.6.25-.16.62-.39.82-.52s.57-.34.82-.48c.25-.14.65-.36.88-.49.23-.12.67-.35.97-.5s.71-.35.91-.44.52-.23.72-.32c.2-.08.58-.23.85-.34.27-.1.67-.25.89-.32.22-.07.57-.18.77-.24s.53-.15.72-.2.52-.12.72-.16c.21-.04.55-.11.77-.14.21-.04.57-.09.8-.12.23-.03.61-.07.84-.1.23-.02.62-.06.86-.08.24-.02.59-.04.79-.06.19-.01.89-.03,1.56-.04.77,0,1.44,0,1.83.01.34.02.81.04,1.04.06.23.02.61.05.84.07.23.02.66.07.95.11.29.04.71.09.95.13.23.04.61.1.84.14.23.04.62.12.86.18.25.05.61.14.8.19.19.05.57.15.83.23.27.08.73.22,1.03.32.3.1.68.23.85.3s.5.19.74.29.62.26.85.36c.23.1.72.34,1.09.52.37.18.91.47,1.2.63.29.16.69.39.88.51.2.12.51.31.7.43s.5.32.7.45c.2.13.52.35.72.49s.57.41.82.6.59.45.74.57c.16.12.39.31.51.41.12.1.43.36.66.56.24.21.62.54.84.75.22.2.64.61.93.91.29.29.67.69.84.88.18.19.47.53.66.74.18.21.48.57.64.77.17.21.45.57.62.8.18.23.46.62.64.86s.46.63.62.86c.16.23.45.65.64.95s.5.79.68,1.08c.18.3.45.77.6,1.04.15.27.36.66.47.87.11.21.26.52.34.69.08.17.17.39.21.49.05.12.09.19.12.2.02,0,.3.08.6.16.3.08.93.24,1.38.36s1.33.35,1.95.51c.62.17,1.83.48,2.68.71s1.8.48,2.12.56c.31.09.9.25,1.31.36.41.11,1.3.37,2,.57s1.84.53,2.56.74c.72.21,1.57.46,1.89.55.32.1.9.27,1.29.39s.99.31,1.34.42c.35.11.84.28,1.1.37.26.09.64.22.84.3.2.07.62.23.92.36s.68.28.84.35c.16.07.39.18.5.24s.27.15.34.2.19.15.27.21c.07.07.16.17.18.23.04.07.05.14.05.2,0,.05-.02.14-.05.19-.02.05-.07.11-.11.13-.04.02-.09.06-.14.08-.04.02-.22.09-.39.15s-.51.18-.74.25c-.23.07-.66.2-.95.27s-.79.21-1.12.29c-.33.08-.8.2-1.04.25-.24.05-.7.15-1.02.22-.32.06-.81.16-1.1.21-.29.05-.75.12-1.04.16s-.71.1-.95.13c-.24.03-.62.07-.85.1-.23.02-.68.07-1,.1-.32.03-.88.08-1.22.11-.35.03-1.03.09-1.52.13-.48.04-1.07.09-1.3.11-.23.02-.75.06-1.17.09-.41.03-1.06.07-1.43.1-.37.02-.86.05-1.09.07-.23.01-.61.03-.85.04-.24.01-1.2.05-2.13.09-.93.04-2.1.09-2.6.11-.5.02-1.14.06-1.44.08-.29.02-.71.05-.93.07s-.55.05-.73.08c-.19.02-.48.07-.66.1s-.43.08-.57.11-.35.09-.47.13c-.12.04-.27.11-.34.14-.07.04-.16.1-.21.14-.08.07-.14.19-.38.67-.16.32-.37.73-.46.91s-.23.42-.31.55c-.08.13-.23.36-.33.51-.1.15-.3.43-.43.61-.14.18-.37.48-.53.66s-.5.55-.77.82c-.27.27-.62.62-.79.77-.16.14-.33.3-.38.35l-.09.08.12-.05c.07-.03.2-.07.3-.11.1-.04.3-.09.44-.13.14-.04.38-.09.52-.11.15-.02.43-.05.63-.06.22,0,.48,0,.66.01.16.02.41.04.55.07.14.02.34.06.46.09.11.03.26.06.33.08.07.02.27.08.46.14.19.06.45.15.57.21.13.05.3.12.37.15.07.03.27.12.44.2.17.08.47.23.68.34s.55.3.75.43.53.33.71.45c.18.12.45.31.6.42.15.11.42.31.6.45.18.14.5.39.72.57.21.18.54.45.71.6s.49.44.7.63.61.59.9.88c.28.29.66.68.84.87.18.19.53.57.77.85s.62.71.84.97.6.72.84,1.02c.25.3.65.83.91,1.17.25.34.64.86.85,1.16.21.3.58.82.81,1.17s.54.81.68,1.05c.15.23.43.69.62,1.02.2.32.47.8.62,1.05s.36.63.47.84.3.56.41.77c.11.21.38.73.58,1.14.2.41.48.98.62,1.27.14.29.33.71.43.94.1.23.25.56.33.74.08.18.21.5.3.72.09.21.24.59.34.84.09.25.25.67.34.95.1.28.26.76.36,1.08.1.32.25.79.33,1.05.08.26.2.69.27.95.07.26.18.65.23.87s.14.57.18.77c.05.21.12.58.18.83.05.25.12.62.15.84s.09.57.12.8c.03.22.08.62.11.89.03.27.07.73.1,1.03.02.29.05.71.07.94s.03.75.03,1.17c0,.62,0,.81-.04,1.03-.02.14-.06.34-.08.44s-.07.24-.1.32-.11.22-.16.31-.15.2-.21.25-.16.12-.22.15-.19.08-.27.11c-.11.03-.2.04-.35.03-.11,0-.25-.03-.32-.05s-.16-.07-.22-.09c-.05-.03-.15-.09-.22-.13s-.2-.15-.29-.24c-.09-.09-.24-.24-.33-.35-.09-.1-.24-.3-.34-.43-.1-.13-.31-.44-.47-.68-.16-.24-.39-.6-.51-.8-.12-.2-.3-.5-.41-.68-.1-.18-.28-.48-.39-.68-.11-.2-.45-.84-.75-1.42s-.69-1.34-.88-1.69c-.18-.35-.42-.81-.54-1.03-.11-.21-.32-.6-.46-.85s-.4-.72-.58-1.04c-.18-.32-.48-.82-.65-1.11s-.43-.71-.57-.94-.38-.59-.52-.82-.41-.61-.58-.85c-.17-.24-.43-.61-.59-.81-.15-.21-.42-.55-.6-.77-.18-.22-.44-.54-.59-.71-.14-.17-.39-.45-.56-.63-.16-.18-.54-.58-.84-.88-.3-.3-.69-.69-.87-.86-.18-.17-.49-.45-.68-.62-.2-.17-.5-.42-.66-.56-.17-.14-.41-.32-.53-.41-.12-.09-.39-.27-.59-.41-.2-.13-.5-.32-.66-.41s-.42-.23-.58-.3-.37-.17-.48-.22c-.11-.04-.25-.1-.3-.12l-.11-.04.05.05s.13.15.23.27.34.41.52.63.5.62.71.88c.2.26.53.68.73.95.2.27.51.69.69.94.18.25.52.74.76,1.09.24.35.61.9.82,1.23s.49.76.62.96c.12.2.37.59.54.86.17.28.42.7.56.93.14.23.35.6.47.81.12.21.31.55.43.77.11.21.32.6.45.86.13.27.34.7.46.96.12.26.28.62.35.8.07.18.22.54.33.81.11.27.27.7.37.96.1.26.27.76.39,1.11.12.36.27.83.35,1.06.07.23.17.57.23.77.05.19.15.55.21.79.06.24.17.72.25,1.07.08.34.18.83.23,1.07.05.25.12.65.16.91s.11.68.14.95c.04.27.09.74.12,1.04.03.3.07.72.08.94.02.22.03.77.03,1.23,0,.57,0,.91-.03,1.07-.02.12-.05.32-.07.44-.02.11-.07.3-.11.41-.04.11-.09.27-.13.34s-.11.21-.16.3c-.05.09-.16.22-.23.3-.07.08-.19.18-.26.23s-.21.12-.31.17-.27.11-.38.14c-.16.05-.27.06-.54.07-.21,0-.41,0-.54-.02-.12-.02-.33-.05-.47-.09-.14-.04-.37-.1-.5-.14-.14-.04-.42-.15-.63-.23-.21-.08-.56-.24-.77-.34s-.52-.26-.66-.35-.41-.24-.57-.34-.46-.3-.66-.44c-.2-.14-.6-.43-.88-.64s-.76-.58-1.06-.82c-.3-.24-.73-.59-.95-.78-.22-.19-.59-.52-.83-.73s-.6-.55-.81-.74c-.21-.2-.73-.7-1.15-1.12-.42-.42-.96-.98-1.2-1.23-.24-.26-.55-.6-.69-.75-.14-.16-.4-.45-.58-.66-.18-.21-.43-.52-.57-.68-.13-.16-.39-.48-.57-.71s-.48-.62-.66-.87c-.19-.25-.45-.62-.58-.81-.14-.19-.35-.51-.48-.71-.13-.2-.33-.5-.43-.66s-.33-.54-.5-.82-.45-.77-.63-1.08c-.17-.31-.44-.8-.59-1.1-.15-.29-.38-.75-.51-1.01s-.32-.67-.43-.89c-.11-.23-.26-.59-.35-.79-.09-.21-.26-.61-.37-.89-.12-.29-.32-.81-.45-1.16-.13-.36-.32-.89-.41-1.19s-.24-.75-.32-1c-.08-.25-.2-.68-.27-.94s-.19-.73-.27-1.04c-.07-.3-.18-.8-.24-1.09-.06-.29-.14-.71-.17-.94-.04-.22-.1-.63-.13-.91s-.09-.7-.11-.95c-.02-.25-.05-.61-.07-.81-.02-.22-.03-.75-.03-1.38,0-.66,0-1.12.03-1.32.02-.17.04-.46.06-.64.02-.19.06-.54.1-.8s.11-.68.15-.95c.05-.27.12-.64.16-.83.04-.19.11-.5.16-.69.05-.19.14-.52.2-.72.06-.21.16-.53.22-.72.06-.19.18-.55.27-.79s.23-.61.32-.82c.09-.21.25-.57.37-.79.11-.23.26-.51.33-.63.07-.12.21-.35.32-.51s.29-.43.41-.59c.12-.16.26-.34.3-.39.08-.09.07-.09-.27.12-.19.12-.52.31-.72.43-.2.12-.57.32-.81.44-.24.12-.62.31-.85.41-.23.1-.53.23-.68.29-.14.06-.39.15-.55.21-.16.06-.54.18-.84.28-.3.09-.76.23-1.03.3-.27.07-.75.2-1.08.29-.33.09-.86.21-1.17.29-.31.07-.77.17-1.02.22-.25.05-.59.11-.77.14-.18.03-.45.07-.59.09-.14.02-.38.04-.52.05s-.44.02-.65.02-.53-.02-.71-.03c-.18-.02-.38-.04-.45-.05-.07-.01-.22-.04-.33-.07-.11-.03-.22-.06-.25-.07s-.07-.07-.1-.11-.06-.11-.08-.14c-.03-.04-.04-.09-.04-.16,0-.09,0-.12.07-.18.04-.04.17-.12.29-.2.12-.07.34-.21.48-.3.14-.1.45-.31.66-.47.22-.16.53-.39.69-.52.16-.12.44-.36.63-.52.19-.16.68-.58,1.09-.93.41-.35.81-.7.9-.78.09-.08.19-.15.22-.16.04,0,.1,0,.14.01.04.01.09.04.1.05.02.03.09-.02.4-.25.21-.16.56-.43.79-.59s.66-.49.97-.71c.3-.22.7-.5.86-.62.17-.12.55-.39.86-.6.3-.21.91-.62,1.34-.91.43-.29,1.02-.68,1.32-.87.29-.19.7-.45.92-.59.21-.13.55-.34.75-.46.2-.12.49-.3.66-.39.16-.09.48-.28.71-.41.23-.13.62-.34.87-.48.25-.14.68-.35.94-.48.27-.13.62-.29.8-.37.18-.07.34-.15.36-.18.04-.04.04-.04,0-.14-.02-.06-.09-.16-.16-.23-.07-.07-.21-.19-.3-.27-.1-.07-.3-.21-.46-.3-.15-.09-.52-.29-.8-.43s-.72-.36-.98-.47c-.25-.11-.7-.31-1-.44-.3-.12-.68-.29-.85-.36s-.45-.17-.61-.23c-.16-.06-.46-.16-.66-.22-.2-.06-.53-.15-.73-.2-.2-.05-.54-.13-.75-.17s-.55-.11-.77-.14c-.22-.04-.58-.09-.81-.12-.23-.03-.59-.07-.79-.09-.2-.02-.61-.04-.89-.05-.35-.02-.65-.02-.91,0-.22.01-.52.04-.66.05-.14.02-.4.05-.57.08-.19.03-.34.04-.4.03-.05,0-.13-.03-.18-.05-.04-.02-.09-.06-.11-.08-.02-.02-.05-.07-.07-.12-.03-.06-.04-.11-.03-.23,0-.09.03-.22.06-.3s.16-.37.3-.64.3-.63.36-.8c.06-.16.13-.39.16-.5s.07-.3.08-.43c.02-.14.02-.31.01-.46,0-.13-.04-.34-.06-.45-.02-.12-.07-.3-.1-.4s-.1-.3-.15-.43c-.05-.13-.16-.35-.23-.48-.07-.13-.18-.31-.23-.39-.05-.09-.17-.25-.25-.36-.08-.11-.22-.29-.3-.39-.09-.1-.28-.31-.43-.46-.15-.16-.37-.36-.48-.46s-.3-.25-.41-.33c-.11-.09-.32-.24-.47-.34s-.4-.27-.56-.36c-.16-.1-.41-.24-.57-.31-.15-.08-.36-.18-.46-.21-.1-.04-.32-.12-.48-.18-.16-.05-.4-.12-.53-.15-.13-.03-.34-.07-.48-.1-.14-.02-.39-.05-.55-.07-.18-.02-.45-.02-.7-.01-.21,0-.54.03-.71.05s-.45.07-.6.1c-.16.03-.39.09-.54.13-.14.04-.33.11-.42.14-.09.04-.27.12-.39.18-.12.06-.32.18-.45.25-.12.08-.35.23-.5.34-.15.11-.38.3-.52.43-.14.12-.33.32-.42.42-.09.11-.22.26-.29.36-.07.09-.19.26-.27.38-.08.12-.19.31-.25.42-.06.11-.16.32-.21.45-.05.14-.12.33-.15.43-.03.1-.08.29-.11.43s-.07.38-.09.55c-.02.16-.04.47-.04.7s.01.52.02.66c.01.14.04.38.07.52s.07.41.11.57c.04.16.1.42.14.57.04.15.12.41.17.57.05.16.14.38.19.49.07.16.09.22.08.28,0,.04-.04.1-.07.14-.03.04-.08.07-.11.08-.03,0-.17.07-.3.13-.13.07-.51.24-.84.39s-1.09.5-1.68.77c-.59.28-1.26.59-1.48.69-.22.11-.8.39-1.28.62-.48.24-1.06.53-1.29.66-.23.12-.55.3-.71.39-.16.09-.45.26-.64.37s-.55.34-.79.49c-.24.16-.58.39-.77.52-.18.13-.44.32-.58.43-.14.11-.38.3-.53.43-.16.13-.43.36-.6.51-.18.16-.48.43-.68.62-.2.19-.54.53-.77.76-.22.23-.5.52-.62.66s-.3.34-.41.47-.29.34-.39.47c-.11.13-.28.35-.38.48s-.29.39-.43.57c-.13.18-.37.52-.54.77-.16.24-.4.61-.52.82-.12.21-.32.56-.44.77-.12.21-.32.61-.45.87-.13.27-.27.56-.32.66-.05.1-.16.38-.27.62s-.27.66-.38.95c-.11.29-.26.71-.34.95s-.21.63-.29.88-.19.61-.24.8c-.05.19-.16.59-.24.89-.08.3-.18.73-.23.95s-.12.55-.15.72c-.04.17-.1.5-.14.73-.04.23-.11.64-.15.92-.04.28-.11.77-.15,1.1s-.09.74-.11.92c-.02.18-.05.54-.08.82-.02.28-.06.72-.07.99s-.04.73-.06,1.03c-.02.29-.03,1.1-.03,1.79s.01,1.55.03,1.91c.02.36.04.92.06,1.24.02.32.05.86.08,1.18.02.32.07.87.11,1.21.04.34.1.86.14,1.16.04.29.1.68.13.85s.1.56.16.85c.06.29.16.77.23,1.05.07.28.18.72.24.97.07.25.18.64.24.86.07.22.17.55.23.74s.17.51.25.72c.07.21.21.57.3.8.09.23.25.62.36.86.1.24.29.65.41.91s.37.77.55,1.12c.18.36.45.87.59,1.12.14.26.36.62.47.82s.31.52.45.73.36.56.51.79c.15.22.34.5.43.62.09.12.31.43.5.68.19.25.5.65.68.88.18.23.46.57.61.75s.4.46.55.63c.15.17.47.52.71.77.24.26.68.7.96.98s.73.71.99.94c.26.23.66.59.88.78s.61.51.85.71c.24.19.64.5.89.69.25.19.61.45.79.57.18.13.56.39.85.58.29.19.69.45.89.58.2.12.54.33.75.45.21.12.57.33.81.46s.71.38,1.06.55c.35.17.8.39,1.02.48.21.09.63.27.94.39.3.12.78.3,1.05.4.27.1.71.26.99.35.27.1.6.22.73.28s.31.15.4.21c.09.06.19.15.23.2.05.07.07.12.07.21,0,.1,0,.13-.04.2-.03.04-.07.1-.1.12-.03.02-.11.06-.18.09-.07.02-.22.06-.34.08-.15.02-.4.03-.83.03-.34,0-.72-.01-.86-.02h.02ZM79.43,25.66c.24-.01.49-.03.55-.04l.12-.02-.34-.14c-.19-.07-.64-.23-.99-.35-.36-.12-.93-.3-1.26-.4-.34-.1-.96-.29-1.4-.41-.43-.12-1.2-.35-1.7-.49-.5-.14-1.11-.32-1.35-.38s-.71-.2-1.06-.29c-.34-.09-.98-.25-1.41-.36-.43-.11-1.04-.25-1.35-.32s-.96-.22-1.45-.33c-.48-.11-.99-.21-1.12-.24-.13-.02-.36-.05-.51-.07s-.35-.02-.44-.01-.22.02-.29.04-.2.05-.3.07c-.11.03-.22.09-.32.16-.09.06-.2.17-.27.25s-.25.37-.41.65-.36.61-.43.74-.2.32-.29.43-.27.32-.41.46-.37.34-.49.45-.33.26-.45.35c-.12.09-.22.17-.22.17,0,0,.19,0,.41-.02.22-.02.72-.05,1.1-.07.38-.02.99-.04,1.35-.05.36,0,1.54-.02,2.61-.02s2.53,0,3.23.02c.7.01,1.59.03,1.96.04s1.04.04,1.47.05c.43.02,1.26.06,1.84.09.58.03,1.3.06,1.61.07s.78.02,1.06,0c.28,0,.71-.02.95-.03h0ZM59.77,22.79c.06-.02.11-.05.13-.1.03-.05.04-.12.04-.34,0-.22-.01-.32-.06-.5-.03-.12-.1-.34-.14-.47s-.13-.34-.18-.46c-.05-.12-.18-.4-.3-.62s-.32-.6-.45-.84c-.14-.24-.33-.57-.43-.73-.1-.16-.3-.47-.45-.69-.14-.21-.36-.52-.47-.68s-.29-.4-.4-.55-.34-.44-.51-.66c-.18-.22-.46-.57-.63-.77-.18-.2-.43-.49-.57-.64-.14-.15-.5-.52-.8-.83-.31-.3-.68-.67-.83-.8-.15-.14-.45-.4-.68-.59-.22-.18-.57-.47-.77-.62-.2-.16-.55-.42-.77-.57-.22-.15-.58-.4-.81-.55-.23-.15-.57-.36-.75-.47-.18-.11-.45-.27-.59-.34-.14-.08-.43-.23-.62-.34-.2-.1-.53-.27-.73-.36-.21-.1-.54-.25-.74-.33s-.55-.23-.77-.32c-.22-.09-.58-.22-.8-.3-.21-.08-.62-.21-.91-.3s-.69-.21-.9-.28-.58-.16-.82-.22c-.24-.06-.67-.16-.96-.23-.29-.07-.69-.15-.88-.18-.19-.04-.5-.09-.68-.12s-.47-.07-.64-.1-.44-.06-.59-.08c-.15-.02-.48-.05-.74-.07-.26-.02-.66-.05-.88-.07s-.82-.03-1.32-.03-1.09.01-1.32.03-.62.05-.87.07c-.25.02-.68.07-.95.11-.27.04-.64.09-.82.12-.18.03-.46.08-.62.11-.16.03-.5.1-.77.15-.26.05-.68.15-.94.21s-.62.16-.8.21c-.18.05-.52.15-.75.22-.23.07-.56.17-.73.23-.17.05-.52.17-.79.26-.27.09-.64.22-.84.29-.2.07-.54.2-.77.29-.22.09-.61.25-.86.35-.26.11-.76.34-1.12.52-.36.18-.83.42-1.05.54-.21.12-.53.3-.71.4-.18.1-.46.28-.64.39-.18.11-.46.3-.63.42-.17.11-.43.3-.59.41-.16.11-.41.3-.57.43s-.44.35-.62.5c-.19.16-.47.4-.63.55-.16.15-.52.5-.8.78-.28.28-.61.64-.75.79s-.37.44-.52.63-.38.5-.52.68c-.13.18-.33.48-.45.66-.11.18-.31.51-.44.74-.13.23-.36.65-.5.94s-.3.61-.34.72c-.05.11-.08.2-.08.2,0,0,.3-.17.66-.38.36-.22.82-.5,1.04-.62.22-.12.59-.34.84-.47.25-.14.66-.36.91-.49.25-.13.75-.38,1.1-.55.35-.17.86-.41,1.13-.53.27-.12.64-.28.82-.36.18-.07.46-.19.63-.25.17-.07.55-.21.86-.33.3-.11.88-.32,1.27-.46s1.12-.39,1.61-.55c.5-.17,1.18-.39,1.52-.5s.86-.27,1.16-.36c.3-.09.79-.23,1.08-.32.29-.08.71-.2.94-.26.22-.06.58-.15.8-.21.21-.05.59-.14.82-.2.23-.05.59-.13.8-.18.2-.04.55-.11.77-.16.21-.04.59-.11.84-.15.25-.04.59-.09.75-.12.17-.02.47-.06.68-.09s.53-.06.73-.08c.2-.02.6-.05.88-.07.29-.02.82-.04,1.18-.05.39,0,.9,0,1.25.01.33.01.78.04.99.06s.57.06.8.09c.22.03.57.08.77.12.2.04.57.11.8.16.24.05.62.15.84.21.22.07.57.17.77.24.2.07.53.19.73.27.2.08.51.21.69.29.18.07.56.26.85.41s.72.38.95.51.61.38.86.54c.24.16.6.41.8.56.2.14.52.39.71.55.2.16.48.39.62.51.14.12.4.35.57.5.17.15.52.49.77.75.26.26.59.62.75.8.15.18.38.44.49.58s.3.38.41.52c.11.14.33.46.48.7.16.24.38.6.5.8.12.2.25.45.3.55.05.11.15.31.21.45s.16.35.21.45l.1.19h.2c.11.01.41.02.66.02.25,0,.67.02.92.02.25.01.78.03,1.18.04s.95.03,1.24.04c.29,0,.6.01.7,0,.1,0,.21-.02.27-.04h0ZM44.57,84.38c-.07-.01-.21-.05-.32-.09s-.26-.1-.33-.14-.23-.14-.35-.21c-.12-.08-.45-.29-.73-.46-.28-.18-.62-.4-.75-.49-.13-.09-.34-.24-.47-.34-.12-.09-.39-.31-.6-.47-.2-.16-.49-.41-.64-.55-.18-.17-.32-.34-.43-.5-.09-.13-.21-.34-.27-.46s-.14-.32-.17-.43c-.04-.11-.09-.29-.11-.39-.02-.1-.05-.27-.07-.38-.02-.12-.02-.34-.02-.55,0-.27.02-.4.06-.53.03-.1.08-.25.12-.33s.13-.21.2-.29c.07-.07.18-.16.25-.2.07-.04.18-.09.26-.11.1-.03.2-.04.44-.04.18,0,.4.02.55.04.13.02.34.06.47.09s.3.07.38.09.22.07.3.1.22.09.3.13c.08.04.23.13.35.21s.3.22.43.32c.12.11.36.3.52.43.16.13.41.32.55.42.13.1.53.36.88.57s.71.45.8.51c.09.06.23.16.3.23.07.07.2.2.27.29.07.1.17.25.21.33.04.09.1.22.13.3s.07.23.09.32c.02.09.03.27.03.39s-.02.29-.03.39-.06.24-.09.33c-.03.09-.09.23-.14.32-.05.09-.15.25-.23.35s-.22.24-.32.32c-.11.09-.27.19-.42.26-.13.07-.32.14-.41.16-.13.04-.25.05-.5.05-.18,0-.38,0-.45-.01h-.02ZM28.58,80.41c-.09-.02-.22-.05-.3-.08s-.22-.09-.31-.13c-.09-.05-.23-.13-.3-.19-.08-.06-.2-.16-.27-.24-.07-.07-.4-.41-.73-.74-.33-.34-.73-.76-.89-.94-.16-.18-.42-.48-.57-.66s-.42-.51-.6-.73c-.18-.22-.39-.5-.47-.62-.08-.12-.2-.32-.27-.46-.07-.13-.15-.34-.19-.46-.04-.12-.09-.32-.11-.44-.02-.12-.05-.34-.07-.49-.02-.16-.02-.43-.02-.64,0-.21.03-.43.05-.53.02-.09.05-.23.08-.3s.08-.21.12-.29c.04-.08.11-.19.16-.25.05-.06.15-.15.22-.2.07-.05.2-.11.29-.14.13-.04.19-.04.38-.04.16,0,.29.03.43.07.11.03.26.08.34.11s.29.13.47.21.43.22.55.3c.12.07.32.2.43.28.11.08.3.25.43.38s.4.45.61.72.51.62.66.8.35.4.43.49.46.48.84.87c.38.38.72.75.77.82.05.07.12.18.16.25.04.07.11.21.14.31.04.09.08.26.1.37.03.15.04.27.03.49,0,.23-.03.34-.07.49-.03.11-.09.27-.13.36-.04.09-.11.21-.16.29-.05.07-.16.21-.26.31-.1.1-.26.24-.36.31-.1.07-.27.16-.36.2-.09.04-.25.09-.34.11-.12.03-.26.05-.46.05-.19,0-.35,0-.45-.02h0ZM55.05,77.97c-.1-.02-.23-.07-.3-.09-.07-.03-.32-.14-.55-.25-.23-.11-.68-.32-.99-.48-.32-.16-.73-.38-.93-.48-.19-.11-.58-.32-.86-.48-.28-.16-.62-.38-.76-.48-.14-.11-.32-.27-.44-.4-.11-.12-.26-.3-.33-.42-.07-.11-.19-.31-.25-.45s-.14-.33-.18-.44-.08-.28-.1-.37c-.03-.12-.04-.26-.04-.48,0-.26.01-.33.05-.48.03-.1.09-.23.13-.3.04-.07.14-.18.22-.26.09-.08.2-.16.3-.21.09-.04.23-.1.3-.12s.23-.06.33-.08c.1-.02.35-.04.55-.05.27,0,.43,0,.63.02.15.02.35.05.45.08.09.02.24.07.32.09.08.03.24.09.36.15.12.05.39.2.6.32.21.12.52.29.68.38.16.09.48.26.72.38.23.12.56.28.73.36.17.08.45.21.63.3.18.09.39.2.47.25.08.05.22.18.32.27s.21.23.27.31c.05.08.12.2.16.27s.09.21.12.3c.03.1.07.25.08.34.02.1.02.27.02.43,0,.16-.03.33-.06.44-.03.1-.09.27-.14.38-.05.11-.13.26-.18.33-.05.07-.14.18-.2.25s-.19.18-.29.26c-.1.07-.25.17-.36.22-.1.05-.27.11-.38.14-.17.05-.24.06-.55.07-.29,0-.39,0-.54-.04h0ZM37.47,73.93c-.09-.02-.23-.05-.32-.08-.08-.03-.22-.08-.3-.12-.09-.04-.21-.11-.28-.16-.07-.05-.18-.14-.26-.21s-.22-.24-.32-.38c-.11-.14-.3-.43-.44-.63-.14-.21-.31-.48-.38-.59-.07-.11-.17-.29-.23-.38s-.2-.36-.32-.57c-.12-.22-.27-.51-.33-.64-.06-.13-.16-.35-.21-.48-.05-.13-.12-.38-.16-.54-.04-.16-.11-.5-.16-.76-.05-.26-.11-.59-.13-.73-.02-.14-.06-.4-.08-.57-.03-.21-.04-.44-.04-.71,0-.3.02-.47.05-.66.03-.14.07-.32.1-.41.03-.09.08-.2.11-.26.04-.06.11-.15.16-.21.05-.06.15-.13.21-.16.08-.04.17-.06.27-.07.12,0,.18,0,.32.04.09.03.23.1.32.15s.21.14.29.2.24.2.36.3c.12.11.4.38.62.6.22.23.54.55.7.72s.41.43.54.59.31.38.38.49.18.29.23.38.18.32.27.5.21.41.27.5c.05.1.15.27.22.37.07.11.21.32.31.48.11.16.25.37.32.47s.18.27.23.38c.05.11.12.3.16.42.05.19.06.26.06.54s0,.36-.06.55c-.03.12-.11.32-.17.44-.06.12-.18.3-.26.4-.08.1-.23.25-.33.33-.11.09-.28.2-.4.26-.12.06-.32.13-.44.16-.15.04-.29.06-.48.07-.16,0-.32,0-.43-.02h.02ZM46.54,70.57c-.07-.01-.2-.04-.29-.06-.09-.02-.27-.09-.38-.15-.12-.06-.3-.17-.39-.25-.11-.09-.3-.28-.48-.5-.17-.2-.39-.46-.49-.59-.1-.12-.26-.34-.35-.49-.09-.14-.21-.32-.26-.4-.05-.08-.15-.25-.23-.38-.07-.12-.18-.32-.25-.43-.06-.11-.15-.29-.2-.41-.05-.12-.12-.3-.16-.43-.04-.12-.09-.32-.11-.45-.02-.13-.05-.38-.07-.56-.02-.19-.02-.44-.01-.61,0-.16.03-.36.05-.46.02-.1.05-.26.09-.36.03-.11.09-.28.14-.38.05-.11.13-.27.19-.36.06-.09.16-.21.22-.28.07-.06.18-.15.26-.19.11-.05.18-.07.31-.08.1,0,.22,0,.29.02.06.02.2.06.29.1.1.04.25.11.34.16s.23.14.32.19c.09.05.25.17.36.25.11.09.29.23.4.31.11.09.28.24.39.34.1.1.25.25.32.34.07.09.18.23.24.32.06.09.18.28.26.43.08.14.23.39.32.54.09.15.24.37.33.48.09.11.25.31.37.45.12.13.25.3.31.37.05.07.13.21.18.29.04.09.1.22.12.3.03.07.06.22.08.32.02.11.04.27.04.37s-.02.27-.04.37c-.02.11-.05.25-.08.32-.03.07-.08.21-.12.3-.04.09-.14.24-.2.33-.07.09-.18.22-.25.29-.07.07-.19.16-.26.21-.07.05-.2.12-.29.16-.09.04-.23.1-.33.13-.1.03-.25.07-.34.08s-.24.02-.33.02c-.09,0-.21-.01-.29-.02h0ZM26.34,65.98c-.09-.02-.23-.05-.3-.07s-.21-.08-.3-.12c-.09-.04-.24-.14-.33-.2-.09-.07-.22-.18-.29-.25-.07-.07-.16-.19-.21-.26-.05-.07-.12-.2-.16-.29-.04-.09-.1-.23-.13-.33s-.07-.29-.09-.44c-.02-.14-.04-.37-.05-.5-.02-.13-.04-.34-.05-.47-.01-.12-.03-.58-.04-1.02,0-.48,0-.95.02-1.21.02-.23.04-.54.07-.69s.09-.41.16-.6.2-.54.3-.8c.1-.25.25-.59.34-.76s.21-.4.29-.51c.08-.12.21-.3.31-.4.09-.11.23-.24.31-.3.08-.06.2-.14.29-.18.08-.04.2-.09.27-.11.09-.03.18-.04.3-.03.13,0,.21.02.3.07.07.03.17.1.22.15.05.05.15.17.22.27.07.1.17.3.23.44.06.14.15.38.2.51.05.14.13.4.18.58.05.18.13.46.18.62s.11.45.16.63c.04.2.09.47.1.64.02.2.02.5,0,.94-.02.4-.02.79,0,1.04.01.22.04.59.07.81s.05.48.06.58c0,.1,0,.26-.02.37s-.05.27-.08.37-.09.25-.13.33c-.04.09-.12.21-.16.29-.05.07-.14.19-.21.26-.07.07-.2.18-.29.25-.09.07-.24.16-.33.2-.09.04-.22.1-.3.12s-.22.06-.32.08-.28.03-.39.03-.27-.02-.37-.03h-.01ZM41.94,60.79c-.07-.01-.21-.04-.32-.07-.1-.03-.25-.09-.34-.13-.09-.04-.21-.11-.27-.16s-.18-.13-.25-.2c-.07-.06-.18-.19-.25-.29-.07-.1-.16-.24-.2-.32-.04-.08-.15-.36-.25-.62-.1-.27-.24-.69-.33-.95-.09-.26-.18-.58-.22-.71-.04-.13-.09-.37-.13-.54-.04-.16-.09-.41-.12-.55-.03-.14-.07-.38-.08-.51-.02-.15-.02-.39-.02-.6,0-.19.03-.45.05-.56s.06-.32.09-.46c.03-.14.09-.35.12-.47.04-.12.11-.34.17-.49.06-.15.14-.33.18-.41.04-.08.12-.21.17-.29.05-.09.18-.24.29-.34.15-.15.22-.21.38-.29.19-.09.2-.1.39-.1s.21,0,.36.08c.09.04.23.14.32.21.09.07.23.22.33.34.1.11.27.34.39.5.11.16.31.46.44.66s.29.49.36.64.18.4.23.55c.05.16.13.46.18.67.04.21.11.5.14.64s.16.55.28.89c.12.35.26.76.32.92.05.16.11.36.12.45.01.09.02.24.02.33s-.02.24-.03.34-.05.25-.08.32c-.03.08-.08.21-.12.29s-.11.2-.16.27c-.05.07-.17.21-.27.32-.1.1-.25.23-.32.27-.07.05-.2.12-.27.16s-.21.09-.29.12c-.08.03-.22.06-.32.08-.1.02-.27.03-.37.03s-.25-.01-.32-.02h0ZM17.55,57.85c-.1-.02-.27-.07-.38-.12-.1-.04-.27-.13-.38-.2-.11-.07-.26-.2-.35-.29-.09-.09-.22-.25-.29-.35-.07-.11-.16-.27-.2-.38-.04-.1-.09-.28-.12-.39-.04-.17-.04-.27-.04-.5,0-.21.03-.41.09-.72.04-.23.11-.58.14-.77.04-.19.09-.47.13-.64.04-.17.11-.41.15-.55.05-.13.14-.34.2-.46.06-.12.18-.32.26-.44s.27-.38.43-.58c.15-.2.36-.46.46-.59.1-.12.29-.33.42-.46.14-.14.3-.27.41-.33.09-.05.24-.13.32-.16.14-.05.18-.06.39-.06s.25,0,.37.06c.08.04.18.12.25.2.07.08.17.21.23.33.05.11.12.25.14.33.02.07.06.21.09.3.03.1.07.36.11.58s.08.5.1.61c.02.11.05.31.07.44.02.12.04.39.05.58.01.27,0,.41-.03.62-.02.15-.05.33-.07.39-.02.07-.06.29-.11.5-.04.21-.12.61-.17.88-.05.29-.12.59-.16.71-.04.12-.11.28-.16.37-.05.09-.15.23-.22.32-.07.09-.2.21-.28.28-.08.07-.21.16-.3.21-.09.05-.23.12-.32.15-.09.04-.25.08-.36.11-.13.03-.28.04-.46.04-.16,0-.33-.02-.45-.04h0ZM33.55,57.63c-.1-.02-.26-.07-.35-.1-.09-.04-.23-.11-.32-.15-.09-.05-.22-.14-.3-.21-.08-.07-.2-.19-.27-.27-.07-.08-.17-.23-.23-.33-.06-.11-.14-.29-.19-.45-.05-.15-.11-.36-.13-.45-.03-.1-.06-.26-.09-.36-.02-.1-.07-.34-.11-.54-.04-.19-.09-.47-.11-.61-.02-.14-.06-.37-.08-.51s-.04-.37-.04-.52c0-.17.02-.36.04-.53.03-.14.07-.37.11-.5s.09-.34.13-.47.1-.35.14-.49c.04-.14.11-.35.14-.46.04-.11.11-.27.16-.37.05-.09.12-.22.17-.29.05-.06.14-.17.21-.23.07-.07.19-.15.27-.19.07-.04.19-.08.26-.1.07-.02.18-.03.23-.03.06,0,.17.02.24.04s.18.06.25.1c.07.04.18.11.25.17.07.05.18.17.24.25.07.08.19.25.27.37.09.12.21.32.28.43.07.11.19.3.27.43.08.12.19.3.24.39.05.09.15.27.21.4.06.13.15.37.19.52.04.15.09.38.11.51s.05.36.08.5c.02.14.08.43.12.62.04.2.1.44.13.54s.07.26.09.34c.02.09.03.27.03.41,0,.15-.02.32-.04.44-.02.11-.07.28-.12.39-.04.1-.13.27-.2.38-.07.11-.2.26-.29.35-.09.09-.25.22-.35.29-.11.07-.27.16-.38.2s-.28.09-.39.12c-.13.03-.29.04-.46.04-.16,0-.33-.02-.45-.04h0ZM26.04,52.73s-.12-.03-.21-.05c-.09-.02-.23-.07-.31-.11-.08-.04-.21-.1-.28-.14-.07-.04-.19-.13-.27-.2-.08-.07-.2-.18-.27-.27-.07-.08-.16-.21-.21-.3-.05-.09-.12-.23-.15-.32-.04-.09-.08-.24-.11-.33-.03-.12-.04-.25-.04-.48,0-.29,0-.35.08-.66.04-.19.12-.5.17-.69s.11-.42.14-.52c.03-.1.13-.43.23-.72.13-.39.21-.61.32-.83.08-.16.21-.38.3-.49.08-.11.25-.31.38-.45s.34-.36.48-.5c.14-.14.34-.31.45-.39.11-.07.26-.17.33-.21.07-.04.22-.11.32-.14.1-.04.26-.07.35-.09.13-.02.2-.02.33,0,.09.02.23.05.31.09.1.05.19.11.28.21.07.07.17.2.21.27.04.08.1.2.13.28.03.08.08.25.11.37s.07.33.09.46c.02.12.05.43.07.67.03.29.03.56.03.8,0,.24-.03.42-.06.57-.03.12-.12.44-.21.71-.09.27-.2.63-.25.8-.05.17-.12.48-.18.69s-.11.43-.12.49c-.02.06-.06.16-.09.22s-.1.18-.15.27c-.05.09-.18.23-.27.33-.09.09-.23.21-.3.27s-.21.13-.31.18c-.1.05-.27.12-.37.15-.17.05-.23.06-.55.06-.2,0-.38,0-.41,0h-.01ZM38.45,28.37c-.1-.01-.28-.04-.41-.06s-.34-.07-.46-.11c-.13-.04-.34-.11-.46-.16-.13-.05-.3-.13-.39-.18-.09-.04-.25-.14-.36-.2-.11-.07-.3-.2-.41-.29-.12-.09-.32-.27-.45-.39-.13-.12-.29-.3-.36-.4-.07-.09-.18-.25-.25-.35-.07-.1-.16-.27-.22-.37-.05-.1-.14-.3-.2-.44-.05-.14-.13-.36-.16-.5-.04-.14-.08-.35-.1-.48-.02-.15-.04-.36-.04-.62,0-.3.01-.46.05-.66.03-.15.07-.38.11-.5.04-.13.1-.31.13-.4.04-.09.12-.27.19-.4.07-.12.17-.31.24-.41.07-.1.18-.25.25-.34.07-.09.19-.23.28-.31.09-.09.25-.24.37-.34.12-.1.29-.23.38-.29.09-.06.23-.15.32-.2.09-.05.27-.14.4-.2.13-.06.36-.14.51-.2.15-.05.39-.11.54-.14.15-.03.39-.07.53-.08.16-.02.41-.02.64-.01.21,0,.48.03.61.05.12.02.36.07.52.11.16.04.4.12.55.18.14.05.36.16.49.22.12.07.34.19.47.28.13.09.34.24.45.34.12.1.28.25.36.34.08.09.2.23.27.32.07.09.18.24.24.34.07.1.16.27.22.37.05.1.14.3.2.44.05.14.13.36.16.5.04.14.08.35.1.48.02.15.04.36.04.62s-.01.47-.04.62c-.02.12-.06.32-.09.45-.03.12-.09.32-.14.45-.05.12-.14.34-.21.47-.07.13-.18.33-.25.43-.07.11-.2.28-.3.39-.09.11-.25.28-.35.38s-.27.23-.38.32c-.11.08-.29.2-.39.27-.11.07-.3.18-.44.24-.14.07-.39.17-.57.23-.18.06-.45.13-.59.16-.15.03-.38.07-.5.08s-.38.02-.55.02c-.18,0-.41-.01-.5-.02h-.02ZM40.33,22.94c.06-.03.15-.09.2-.14.05-.05.11-.14.13-.19.03-.06.04-.14.04-.26,0-.14,0-.18-.07-.3-.04-.07-.1-.16-.15-.2-.04-.04-.11-.08-.16-.11-.06-.03-.12-.04-.27-.04s-.21,0-.27.04c-.04.02-.11.07-.16.11-.05.04-.11.12-.15.2-.06.11-.07.16-.07.3,0,.11.02.2.04.26.02.05.08.13.12.18.05.05.11.11.15.12.04.02.11.05.16.06.05.02.14.02.21.02.07,0,.17-.03.23-.06h0Z"/>
  </g>
</svg>