<?xml version="1.0" encoding="UTF-8"?>
<svg id="Calque_2" data-name="Calque 2" xmlns="http://www.w3.org/2000/svg" viewBox="0 0 90 44.84">
  <g id="Calque_1-2" data-name="Calque 1">
    <g>
      <path d="M45,0C20.74,0,1.5,19.85.69,20.69c-.92.97-.92,2.49,0,3.45.81.84,20.05,20.69,44.31,20.69s43.5-19.85,44.31-20.69c.92-.97.92-2.49,0-3.45-.81-.84-20.05-20.69-44.31-20.69ZM45,39.34c-9.34,0-16.92-7.57-16.92-16.92s7.57-16.92,16.92-16.92,16.92,7.57,16.92,16.92c-.01,9.34-7.58,16.91-16.92,16.92ZM28.15,8.42c-6.76,8.11-6.76,19.88-.01,27.99-8.1-3.35-15.55-8.08-22.03-13.99,6.47-5.92,13.93-10.65,22.04-14ZM61.85,36.42c6.76-8.11,6.76-19.88.01-27.99,8.1,3.35,15.55,8.08,22.03,13.99-6.47,5.92-13.93,10.65-22.04,14Z"/>
      <path d="M45,12.59c-.42,0-.84.03-1.25.09,1.52,2.48.74,5.73-1.74,7.25-2.01,1.23-4.59.98-6.33-.62-1.71,5.15,1.07,10.71,6.22,12.42,5.15,1.71,10.71-1.07,12.42-6.22,1.71-5.15-1.07-10.71-6.22-12.42-1-.33-2.05-.5-3.11-.5Z"/>
    </g>
  </g>
</svg>