<?xml version="1.0" encoding="UTF-8"?>
<svg id="Calque_2" data-name="Calque 2" xmlns="http://www.w3.org/2000/svg" viewBox="0 0 16.14 16.14">
  <g id="Calque_1-2" data-name="Calque 1">
    <path d="M7.92.15c-.09-.09-.22-.15-.35-.15H.5C.22,0,0,.22,0,.5v7.07c0,.13.06.26.15.35l7.78,7.78h0c.59.58,1.53.58,2.12,0l5.65-5.63c.58-.59.58-1.53,0-2.12L7.92.15ZM14.99,9.34l-5.66,5.66c-.19.2-.51.2-.71,0,0,0,0,0,0,0L1,7.36V1h6.36l7.63,7.63c.2.19.2.51.01.71,0,0,0,0,0,0h-.01Z"/>
    <path d="M3.57,2.57c-.55,0-1,.45-1,1s.45,1,1,1,1-.45,1-1-.45-1-1-1Z"/>
  </g>
</svg>