<?xml version="1.0" encoding="UTF-8"?>
<svg id="Calque_2" data-name="Calque 2" xmlns="http://www.w3.org/2000/svg" viewBox="0 0 95.9 86.37">
  <g id="Calque_1-2" data-name="Calque 1">
    <g>
      <path d="M94.32,68.39L58.26,5.96c-2.22-3.74-6.06-5.96-10.4-5.96h-.1c-4.24,0-8.08,2.32-10.2,5.96L1.59,68.39c-2.12,3.74-2.12,8.28,0,12.02,2.12,3.74,6.06,5.96,10.31,5.96h72.02c4.34,0,8.18-2.22,10.31-5.96,2.22-3.74,2.22-8.29.1-12.02h0ZM89.67,77.68c-1.21,2.02-3.33,3.23-5.66,3.23H12c-2.43,0-4.55-1.21-5.66-3.23-1.21-2.12-1.21-4.55,0-6.67L42.4,8.59c1.21-2.02,3.23-3.33,5.66-3.33s4.55,1.21,5.76,3.33l35.96,62.32c1.11,2.22,1.11,4.75-.11,6.77h0Z"/>
      <path d="M44.02,50.71c.3,2.12.71,3.84,1.11,4.95.5,1.11,1.41,1.62,2.73,1.62,1.21,0,2.12-.61,2.73-1.72.5-1.01.81-2.52,1.11-4.75l1.52-17.48c.1-1.62.2-3.23.2-4.75,0-2.52-.4-4.64-1.11-5.96-.61-1.41-2.02-2.12-4.04-2.12-1.62,0-3.13.4-4.04,1.62-1.01,1.21-1.52,2.73-1.52,4.64,0,1.41.1,3.74.3,7.07l1.01,16.87Z"/>
      <path d="M47.86,63.44c-1.52,0-2.73.4-3.74,1.52-1.01,1.01-1.52,2.22-1.52,3.74,0,1.72.5,3.03,1.62,3.94,1.11.81,2.22,1.41,3.74,1.41,1.41,0,2.73-.61,3.74-1.52,1.11-.81,1.62-2.12,1.62-3.84,0-1.41-.71-2.83-1.72-3.74-.91-1.01-2.23-1.51-3.74-1.51h0Z"/>
    </g>
  </g>
</svg>