<?xml version="1.0" encoding="UTF-8"?>
<svg id="Calque_2" data-name="Calque 2" xmlns="http://www.w3.org/2000/svg" viewBox="0 0 69.95 87.5">
  <g id="Calque_1-2" data-name="Calque 1">
    <g>
      <path d="M69.89,73.68c-.18-2.73-2.78-7.32-7.56-6.53-.07,0-2.09.26-5.37.6-.29-4.79-.53-21.09,6.5-48.96C66.08,9.65,58.32-.27,48.82,0H7.45C3.34,0,0,3.34,0,7.46s3.34,7.45,7.45,7.45h5.1,0c-.2,4.5-1.17,8.92-2.89,13.08-3.79,11.21-6.21,22.82-7.24,34.6-.43,5.69-1.97,12.71,2.42,20.01,1.34,2.87,4.16,4.76,7.32,4.9-.99.11,19.85-1.77,19.82-1.73,8.93-.89,17.91-1.14,26.87-.72,3.05.24,6.06-.9,8.19-3.09,2.13-2.2,3.18-5.23,2.85-8.28h0ZM3.07,7.46c0-2.42,1.96-4.38,4.38-4.38h2.1c1.71,2.62,2.71,5.64,2.9,8.77h-5c-2.42,0-4.38-1.96-4.38-4.38ZM7.57,81.2c-3.31-4.54-2.75-12.65-2.42-15,.75-16.14,7.1-37.3,7.38-37.13,5.28-13.48,2.67-22.03.59-26h35.69c3.71,0,7.2,1.71,9.48,4.64,2.28,2.92,3.09,6.73,2.19,10.32-7.23,28.66-6.93,45.07-6.59,50.02-10.09.96-27.21,2.2-40.07,1.1-9.46-1.16-8.48,13.47,1.12,12.55l1.27-.16c-3.32,4.89-7.22,2.55-8.63-.34h0ZM17.29,78.33s-.07-.01-.11,0l-2.62.33c-1.18.13-2.37-.29-3.2-1.14-.84-.85-1.23-2.04-1.09-3.22.08-.71.46-1.34,1.05-1.75.58-.41,1.31-.54,2-.36.73.09,1.48.12,2.23.18,1.15,1.78,1.76,3.86,1.74,5.98h0ZM64.93,79.76h0c-1.52,1.58-3.66,2.39-5.85,2.23-9.14-.44-18.29-.2-27.4.73l-13.37,1.14c2.74-3.01,2.41-8.37.82-11.32,12.18.24,24.35-.29,36.47-1.57.07,0,.15,0,.23-.02,4.17-.41,6.8-.75,6.89-.76,3.38-.41,4.02,3.02,4.11,3.7.32,2.14-.38,4.32-1.89,5.88h0Z"/>
      <path d="M20.35,14.68h31.69c.41,0,.8-.16,1.09-.45.29-.29.45-.68.45-1.09s-.16-.8-.45-1.09c-.29-.29-.68-.45-1.09-.45h-31.69c-.84.02-1.51.7-1.51,1.54s.67,1.52,1.51,1.54h0Z"/>
      <path d="M52.05,23.62h-6.6c-.84.02-1.51.7-1.51,1.54s.67,1.52,1.51,1.54h6.61,0c.84-.02,1.51-.7,1.51-1.54s-.67-1.52-1.51-1.54Z"/>
      <path d="M20.35,26.69h15.55,0c.84-.02,1.51-.7,1.51-1.54s-.67-1.52-1.51-1.54h-15.54c-.84.02-1.51.7-1.51,1.54s.67,1.52,1.51,1.54h0Z"/>
      <path d="M18.07,38.69h31.69c.85,0,1.53-.69,1.53-1.54s-.68-1.53-1.53-1.54h-31.69c-.84.02-1.51.7-1.51,1.54s.67,1.52,1.51,1.54Z"/>
      <path d="M47.64,47.63h-16.32c-.84.02-1.5.7-1.5,1.54s.67,1.52,1.5,1.54h16.32c.84-.02,1.51-.7,1.51-1.54s-.67-1.52-1.51-1.54Z"/>
      <path d="M15.95,50.7h6.49,0c.84-.02,1.51-.7,1.51-1.54s-.67-1.52-1.51-1.54h-6.49,0c-.84.02-1.51.7-1.51,1.54s.67,1.52,1.51,1.54Z"/>
      <path d="M13.75,62.7h31.69c.85,0,1.54-.69,1.54-1.54s-.69-1.54-1.54-1.54H13.75c-.84.02-1.5.7-1.5,1.54s.67,1.52,1.5,1.54Z"/>
    </g>
  </g>
</svg>