<?xml version="1.0" encoding="UTF-8"?>
<svg id="Calque_2" data-name="Calque 2" xmlns="http://www.w3.org/2000/svg" viewBox="0 0 76.13 80">
  <g id="Calque_1-2" data-name="Calque 1">
    <path d="M17.44,0C14.85,0,12.72,2.13,12.72,4.71v3.1h-4.66C3.62,7.82,0,11.45,0,15.89v56.03c0,4.45,3.62,8.07,8.07,8.07h60c4.45,0,8.07-3.63,8.07-8.07V15.89c0-4.45-3.63-8.07-8.07-8.07h-4.65v-3.1c0-2.59-2.13-4.71-4.71-4.71s-4.72,2.13-4.72,4.71v3.1h-31.81v-3.1c0-2.59-2.14-4.71-4.72-4.71h0ZM17.44,3.08c.94,0,1.65.7,1.65,1.64v9.29c0,.94-.71,1.64-1.65,1.64s-1.65-.7-1.65-1.64V4.71c0-.94.71-1.64,1.65-1.64ZM58.7,3.08c.93,0,1.63.7,1.63,1.64v9.29c0,.94-.7,1.64-1.63,1.64s-1.65-.7-1.65-1.64V4.71c0-.94.71-1.64,1.65-1.64ZM8.07,10.89h4.66v3.11c0,2.59,2.13,4.71,4.71,4.71s4.72-2.12,4.72-4.71v-3.11h31.81v3.11c0,2.59,2.14,4.71,4.72,4.71s4.71-2.12,4.71-4.71v-3.11h4.65c2.79,0,4.98,2.2,4.98,5v9.29H3.07v-9.29c0-2.79,2.2-5,5-5h0ZM3.07,28.26h69.98v43.67c0,2.79-2.19,5-4.98,5H8.07c-2.79,0-5-2.2-5-5V28.26ZM14.09,35.84c-.85,0-1.54.68-1.54,1.53v11.35c0,.41.16.8.45,1.09.29.29.68.45,1.09.45h11.35c.85,0,1.54-.7,1.53-1.54v-11.35c0-.84-.69-1.53-1.53-1.53h-11.35ZM32.4,35.84c-.85,0-1.54.68-1.54,1.53v11.35c0,.41.16.8.45,1.09.29.29.68.45,1.09.45h11.34c.41,0,.8-.16,1.09-.45s.45-.68.45-1.09v-11.35c0-.85-.69-1.53-1.54-1.53h-11.34ZM50.7,35.84c-.84,0-1.53.69-1.53,1.53v11.35c0,.85.68,1.54,1.53,1.54h11.35c.41,0,.8-.16,1.09-.45.29-.29.45-.68.45-1.09v-11.35c0-.41-.16-.8-.46-1.09-.29-.29-.68-.45-1.09-.45h-11.35ZM15.62,38.92h8.27v8.27h-8.27v-8.27ZM33.93,38.92h8.27v8.27h-8.27v-8.27ZM52.25,38.92h8.27v8.27h-8.27v-8.27ZM14.09,54.4c-.41,0-.8.16-1.09.45-.29.29-.45.68-.45,1.09v11.35c0,.85.7,1.54,1.54,1.53h11.35c.84,0,1.53-.69,1.53-1.53v-11.35c0-.85-.68-1.54-1.53-1.54h-11.35ZM32.4,54.4c-.41,0-.8.16-1.09.45-.29.29-.45.68-.45,1.09v11.35c0,.85.7,1.54,1.54,1.53h11.34c.85,0,1.53-.69,1.54-1.53v-11.35c0-.41-.16-.8-.45-1.09-.29-.29-.68-.45-1.09-.45h-11.34ZM50.7,54.4c-.85,0-1.54.7-1.53,1.54v11.35c0,.84.69,1.53,1.53,1.53h11.35c.41,0,.8-.16,1.09-.45.29-.29.45-.68.46-1.09v-11.35c0-.41-.16-.8-.45-1.09-.29-.29-.68-.45-1.09-.45h-11.35ZM15.62,57.48h8.27v8.27h-8.27v-8.27ZM33.93,57.48h8.27v8.27h-8.27v-8.27ZM52.24,57.48h8.27v8.27h-8.27v-8.27Z"/>
  </g>
</svg>