<?xml version="1.0" encoding="UTF-8"?>
<svg id="Calque_2" data-name="Calque 2" xmlns="http://www.w3.org/2000/svg" viewBox="0 0 41.61 40.91">
  <g id="Calque_1-2" data-name="Calque 1">
    <g>
      <path d="M34.46,20.35c.62-.15,1.23-.34,1.83-.57,1.27-.5,2.61-.8,3.96-.91l-.09-1c-1.44.12-2.86.44-4.21.97-1.44.58-2.99.85-4.54.8h-9.67l5.24-8.02c1.32-2.01,2.97-2.14,4.89-2.28,1.48,0,2.93-.36,4.22-1.08l-.53-.85c-1.15.62-2.45.94-3.76.93-1.03.03-2.04.2-3.02.53l3.12-4.78-.84-.55-3.05,4.67c-.07-.83-.23-1.66-.5-2.45-.49-1.35-.66-2.79-.49-4.21l-.99-.14c-.19,1.56,0,3.15.52,4.64.5,1.7.89,3.03-.41,5.02h0l-5.16,7.89L15.58,1.35l-.96.29,5.22,17.07L6.04,7.41l-.63.77,13.82,11.31-17.68-1.62-.09,1,17.69,1.62L3.51,29.16l.48.88,15.69-8.7-7.73,16.19.9.43,7.7-16.14,2.76,17.67.99-.15-2.76-17.67,12.23,13.03.73-.68-12.54-13.37h9.35c1.59-.06,3.14.57,4.24,1.73,1.17,1.14,2.65,1.92,4.25,2.25l.21-.98c-1.44-.3-2.76-1-3.8-2.03-.53-.49-1.11-.91-1.74-1.26Z"/>
      <g>
        <circle cx="20.81" cy="20.15" r="1.5"/>
        <circle cx="31.31" cy="20.15" r="1.5"/>
        <circle cx="40.11" cy="18.38" r="1.5"/>
        <circle cx="39.89" cy="24.13" r="1.5"/>
        <circle cx="35.94" cy="7.76" r="1.5"/>
        <circle cx="31.47" cy="3.83" r="1.5"/>
        <circle cx="26.51" cy="1.5" r="1.5"/>
        <circle cx="15.1" cy="1.5" r="1.5"/>
        <circle cx="5.72" cy="7.8" r="1.5"/>
        <circle cx="1.5" cy="18.38" r="1.5"/>
        <circle cx="3.75" cy="29.6" r="1.5"/>
        <circle cx="12.41" cy="37.74" r="1.5"/>
        <circle cx="23.82" cy="39.41" r="1.5"/>
        <circle cx="34.14" cy="34.36" r="1.5"/>
        <circle cx="26.57" cy="11.37" r="1.5"/>
        <circle cx="22.42" cy="30.52" r="1.5"/>
        <circle cx="28.1" cy="27.69" r="1.5"/>
        <circle cx="16.27" cy="29.66" r="1.5"/>
        <circle cx="11.58" cy="25.15" r="1.5"/>
        <circle cx="10.36" cy="19.19" r="1.5"/>
        <circle cx="12.69" cy="13.5" r="1.5"/>
        <circle cx="17.73" cy="10.09" r="1.5"/>
      </g>
    </g>
  </g>
</svg>